<?xml version="1.0" encoding="UTF-8" standalone="no"?>
<svg
   xmlns:dc="http://purl.org/dc/elements/1.1/"
   xmlns:cc="http://creativecommons.org/ns#"
   xmlns:rdf="http://www.w3.org/1999/02/22-rdf-syntax-ns#"
   xmlns:svg="http://www.w3.org/2000/svg"
   xmlns="http://www.w3.org/2000/svg"
   xmlns:sodipodi="http://sodipodi.sourceforge.net/DTD/sodipodi-0.dtd"
   xmlns:inkscape="http://www.inkscape.org/namespaces/inkscape"
   version="1.1"
   viewBox="0 0 32 31.999999"
   enable-background="new 0 0 452.84 452.84"
   id="svg8"
   sodipodi:docname="carta.svg"
   inkscape:export-filename="/home/eduardo/w/livros/maria-santana-livro/docs/img/carta.png"
   inkscape:export-xdpi="5.0900002"
   inkscape:export-ydpi="5.0900002"
   inkscape:version="0.92.3 (2405546, 2018-03-11)"
   width="32"
   height="32">
  <metadata
     id="metadata14">
    <rdf:RDF>
      <cc:Work
         rdf:about="">
        <dc:format>image/svg+xml</dc:format>
        <dc:type
           rdf:resource="http://purl.org/dc/dcmitype/StillImage" />
        <dc:title></dc:title>
      </cc:Work>
    </rdf:RDF>
  </metadata>
  <defs
     id="defs12" />
  <sodipodi:namedview
     pagecolor="#ffffff"
     bordercolor="#666666"
     borderopacity="1"
     objecttolerance="10"
     gridtolerance="10"
     guidetolerance="10"
     inkscape:pageopacity="0"
     inkscape:pageshadow="2"
     inkscape:window-width="1853"
     inkscape:window-height="1025"
     id="namedview10"
     showgrid="false"
     inkscape:zoom="11.306948"
     inkscape:cx="-3.3223476"
     inkscape:cy="11.498629"
     inkscape:window-x="67"
     inkscape:window-y="27"
     inkscape:window-maximized="1"
     inkscape:current-layer="svg8"
     fit-margin-top="0"
     fit-margin-left="0"
     fit-margin-right="0"
     fit-margin-bottom="0" />
  <path
     style="fill:#000000;stroke-width:0.0625"
     d="M 10.025742,21.828129 C 6.5937256,18.399223 3.7606036,15.530753 3.7299146,15.453751 c -0.03069,-0.077 -0.03551,-0.193708 -0.01071,-0.25935 0.0248,-0.06564 2.541186,-2.625297 5.591968,-5.6881235 4.6647254,-4.68314 5.5741574,-5.568775 5.7184024,-5.568775 0.144223,0 1.168807,0.997284 6.437497,6.2659755 5.539444,5.539445 6.265973,6.287803 6.265973,6.454241 0,0.155919 -0.112995,0.300839 -0.657604,0.843402 l -0.657604,0.655133 0.923229,0.03125 0.923229,0.03125 0.01618,3.265625 0.01618,3.265625 h -1.375553 -1.375557 v -0.59375 -0.59375 l -0.484374,0.0023 c -0.266406,0.0013 -1.194634,-0.07549 -2.062728,-0.170569 l -1.578352,-0.172877 -2.42351,2.42057 c -1.874436,1.872162 -2.458321,2.420569 -2.577161,2.420569 -0.120472,0 -1.501172,-1.3463 -6.393681,-6.234375 z m 8.361143,3.23679 c 1.06388,-1.064296 1.921523,-1.945706 1.905871,-1.958689 -0.01565,-0.01298 -0.478457,-0.0719 -1.028457,-0.130916 -0.673743,-0.0723 -1.055951,-0.141854 -1.171494,-0.213186 -0.09432,-0.05823 -0.88629,-0.682437 -1.75993,-1.387124 -1.014126,-0.818006 -1.635689,-1.363418 -1.719131,-1.50851 -0.09008,-0.156645 -0.130695,-0.336282 -0.130695,-0.578125 v -0.350865 h -0.639451 -0.639451 l -0.565441,0.56309 -0.565442,0.563092 -0.294596,-0.299093 -0.294596,-0.299093 0.656649,-0.654623 0.656647,-0.654623 1.24405,-0.03125 c 0.684228,-0.01719 1.260884,-0.04816 1.281458,-0.06883 0.02058,-0.02067 -0.0051,-0.119105 -0.05707,-0.21875 -0.125694,-0.241022 -0.125764,-0.972131 -1.25e-4,-1.215107 0.09589,-0.185431 1.924731,-1.610912 2.339953,-1.823864 0.194056,-0.09952 0.424505,-0.110953 2.236391,-0.110953 1.607053,0 2.063627,0.01821 2.233222,0.08907 0.152368,0.06366 0.617724,0.562869 1.631339,1.75 0.779988,0.91351 1.45,1.660928 1.488916,1.660928 0.03891,0 0.407585,-0.337711 0.819267,-0.750468 l 0.74851,-0.750463 -5.876831,-5.876831 -5.876832,-5.8768325 -5.1488824,5.1947015 -5.148883,5.194701 5.8385994,5.838849 c 3.211229,3.211367 5.852887,5.838849 5.870351,5.838849 0.01746,0 0.902202,-0.870788 1.966084,-1.935085 z m -7.982735,-6.674838 -0.294634,-0.299132 1.078898,-1.077577 1.0789,-1.077578 0.294633,0.299132 0.294635,0.299132 -1.078899,1.077578 -1.078899,1.077578 z m -1.3750144,-1.375014 -0.294967,-0.299469 0.718288,-0.716251 0.7182894,-0.716251 0.296199,0.296199 0.296199,0.296199 -0.719522,0.719521 -0.7195214,0.719521 z m 4.2628054,-1.48749 -0.274839,-0.28004 1.45049,-1.45049 1.45049,-1.45049 0.283139,0.27788 c 0.155727,0.152834 0.275814,0.294626 0.266859,0.315093 -0.009,0.02047 -0.66541,0.674159 -1.458791,1.45265 l -1.44251,1.415438 z m -2.426937,-0.301736 c -0.149232,-0.152056 -0.261064,-0.30023 -0.248517,-0.329276 0.01255,-0.02905 0.333542,-0.354972 0.713322,-0.72428 l 0.690511,-0.671469 0.276756,0.281995 0.276757,0.281993 -0.71875,0.71875 -0.71875,0.71875 z m -2.4932534,-0.305626 -0.262325,-0.267289 0.735471,-0.733555 0.73547,-0.733554 0.277644,0.282898 0.2776434,0.282899 -0.7159084,0.717945 c -0.39375,0.39487 -0.731605,0.717945 -0.75079,0.717945 -0.01919,0 -0.152927,-0.12028 -0.297205,-0.267289 z m 4.2949604,-1.517872 -0.274585,-0.279781 1.263896,-1.263896 1.263897,-1.263897 0.296246,0.296245 0.296245,0.296246 -0.686556,0.692053 c -0.377605,0.38063 -0.956106,0.941974 -1.285557,1.247433 l -0.599001,0.555378 z m -2.107377,-0.669544 -0.262242,-0.267203 0.89156,-0.889969 0.891559,-0.889969 0.263919,0.268914 c 0.145156,0.147902 0.263919,0.300285 0.263919,0.338627 0,0.07217 -1.67109,1.706805 -1.744868,1.706805 -0.02288,0 -0.159615,-0.120242 -0.303847,-0.267205 z m 6.032271,-0.467763 -0.294982,-0.299485 0.687085,-0.684954 0.687085,-0.684954 0.296168,0.296168 0.296169,0.296168 -0.688272,0.688271 -0.688271,0.688271 z m -3.859714,-1.672462 -0.277184,-0.28243 0.888897,-0.8888975 0.888897,-0.888897 0.296319,0.296319 0.296319,0.29632 -0.873333,0.875007 c -0.480333,0.4812555 -0.888947,0.8750085 -0.908032,0.8750085 -0.01908,0 -0.159432,-0.127094 -0.311883,-0.28243 z m 12.813657,10.291135 v -1.803795 l -0.299792,-0.03551 c -0.164887,-0.01953 -0.376865,-0.07062 -0.471062,-0.113541 -0.0942,-0.04292 -0.794989,-0.811328 -1.557314,-1.707574 -0.762325,-0.896247 -1.41519,-1.650202 -1.450813,-1.675457 -0.03562,-0.02526 -0.900174,-0.04635 -1.921227,-0.04687 l -1.856459,-9.58e-4 -1.002916,0.749735 c -0.995743,0.744374 -1.002916,0.751479 -1.002916,0.993313 0,0.287363 0.05505,0.319451 0.548097,0.319451 0.31848,0 0.382018,-0.02474 0.698013,-0.271766 0.191202,-0.149472 0.409072,-0.30416 0.484156,-0.34375 0.169208,-0.08922 0.519001,-0.09293 0.742715,-0.0079 0.217175,0.08257 1.023543,0.774375 1.173781,1.007019 l 0.115513,0.178872 h 1.712612 c 1.62928,0 1.718695,0.0061 1.837613,0.125 0.16026,0.16026 0.159301,0.377112 -0.0024,0.550715 -0.125165,0.13435 -0.158821,0.136828 -1.890625,0.139222 l -1.76319,0.0024 -0.19785,0.269188 c -0.247879,0.337255 -0.573728,0.500442 -0.920373,0.460931 -0.160642,-0.01831 -0.534398,-0.184777 -0.998309,-0.444632 L 16.781235,18.812504 H 16.19871 c -0.792738,0 -0.903337,0.04768 -0.902527,0.389078 l 6.38e-4,0.267172 1.510734,1.21875 c 0.830904,0.670312 1.561167,1.255009 1.622806,1.299327 0.176237,0.12671 5.217962,0.68607 6.255815,0.694058 l 0.859372,0.0066 z m -7.00242,-2.855373 c -0.04412,-0.05317 -0.161034,-0.154207 -0.259798,-0.224533 -0.195395,-0.139134 -0.209299,-0.134779 -0.612781,0.19191 l -0.15625,0.126511 0.554527,0.0014 c 0.493354,0.0012 0.545678,-0.0093 0.474302,-0.09528 z"
     id="path1028"
     inkscape:connector-curvature="0" />
</svg>
